<?xml version="1.0" standalone="no"?>
<!DOCTYPE svg PUBLIC "-//W3C//DTD SVG 20010904//EN"
 "http://www.w3.org/TR/2001/REC-SVG-20010904/DTD/svg10.dtd">
<svg version="1.0" xmlns="http://www.w3.org/2000/svg"
 width="450.000000pt" height="338.000000pt" viewBox="0 0 450.000000 338.000000"
 preserveAspectRatio="xMidYMid meet">
<metadata>
Created by potrace 1.10, written by Peter Selinger 2001-2011
</metadata>
<g transform="translate(0.000000,338.000000) scale(0.050000,-0.050000)"
fill="#000000" stroke="none">
<path d="M3396 6733 c-27 -21 -30 -32 -10 -53 17 -19 17 -22 0 -13 -13 8 -29
5 -36 -7 -7 -11 -26 -20 -43 -20 -16 0 -42 -11 -58 -25 -54 -49 -80 -66 -174
-115 -52 -28 -95 -57 -95 -65 0 -8 -13 -15 -29 -15 -17 0 -62 -18 -102 -40
-39 -23 -80 -36 -90 -29 -11 6 -19 2 -19 -8 0 -11 -20 -27 -45 -34 -25 -8 -52
-24 -60 -37 -10 -15 -14 -14 -15 4 0 22 -5 22 -29 0 -16 -14 -58 -48 -95 -74
-102 -74 -180 -183 -167 -235 6 -25 3 -50 -7 -56 -11 -6 -20 -242 -22 -536 -2
-289 -4 -601 -5 -695 -1 -98 -11 -176 -23 -185 -15 -10 -15 -14 1 -15 16 0 23
-53 21 -169 -1 -93 4 -175 11 -182 7 -7 6 -32 -3 -56 -8 -24 -12 -128 -10
-233 7 -253 29 -827 36 -940 3 -49 -2 -100 -12 -113 -11 -14 -10 -28 1 -35 17
-11 25 -177 31 -675 1 -95 9 -169 17 -164 8 5 15 -29 15 -77 -1 -63 -6 -78
-20 -56 -17 26 -19 25 -20 -5 0 -19 10 -35 23 -35 14 0 18 -22 9 -63 -7 -36
-3 -74 10 -90 17 -20 16 -35 -5 -61 -15 -18 -17 -28 -4 -20 14 9 23 -3 24 -31
0 -25 5 -99 11 -165 5 -66 14 -166 19 -223 4 -57 14 -113 22 -125 7 -12 5 -22
-6 -22 -22 0 -20 -37 4 -75 9 -14 6 -25 -7 -25 -15 0 -15 -11 -1 -38 12 -22
20 -60 18 -85 -1 -26 8 -72 20 -102 12 -30 14 -55 5 -55 -25 0 -2 -95 30 -122
15 -13 28 -35 28 -50 0 -16 9 -28 21 -28 11 0 43 -22 69 -48 27 -27 78 -55
114 -63 36 -7 75 -20 86 -29 11 -8 50 -15 86 -16 73 -2 183 -22 213 -40 11 -6
51 -15 89 -19 39 -4 84 -18 100 -31 24 -19 26 -19 13 4 -13 21 -10 24 11 10
15 -10 46 -18 68 -19 22 -1 72 -12 110 -24 39 -12 131 -29 205 -36 75 -8 140
-22 146 -31 6 -10 119 -18 251 -18 l240 0 59 64 c40 44 59 86 59 129 0 36 9
70 21 78 13 8 14 22 3 36 -24 31 -29 193 -5 193 10 0 18 27 17 59 -1 33 -10
55 -19 49 -9 -6 -17 26 -17 70 0 44 10 86 22 93 16 10 14 19 -5 32 -22 14 -22
20 3 37 23 16 24 24 5 36 -28 19 -28 121 1 159 12 16 11 25 -4 25 -12 0 -22
14 -22 30 0 17 11 30 25 30 18 1 18 5 -2 18 -17 11 -19 20 -6 25 14 5 15 33 3
86 -9 43 -13 86 -7 95 14 23 34 230 30 313 -2 36 3 76 10 88 8 13 17 71 20
131 4 60 17 121 29 137 13 15 15 27 6 27 -9 0 -5 11 8 24 13 13 24 33 24 45 0
12 -9 8 -20 -9 -11 -16 -20 -20 -20 -7 0 28 49 70 67 57 7 -5 5 1 -6 13 -23
28 2 80 81 171 34 40 59 55 65 40 7 -18 10 -18 11 1 1 14 12 25 23 25 12 0 35
13 52 30 25 26 98 41 152 32 8 -1 15 5 15 15 0 9 11 18 25 20 14 2 48 7 75 11
28 4 73 12 100 19 28 7 88 17 135 22 47 5 96 15 108 23 14 8 18 5 10 -7 -15
-24 63 -10 99 18 12 9 28 10 36 3 22 -22 112 -29 112 -9 0 10 110 20 245 22
304 6 295 5 295 19 0 7 39 11 87 9 48 -2 100 5 115 15 15 9 19 18 9 18 -11 0
11 29 50 64 38 36 76 63 85 60 10 -3 10 6 1 20 -8 14 -14 61 -13 105 2 52 -14
108 -47 165 -28 47 -44 86 -36 86 7 0 3 13 -10 29 -14 16 -19 38 -12 49 6 11
-3 28 -21 38 -18 10 -33 42 -33 71 0 31 -8 47 -21 39 -13 -8 -16 0 -8 21 7 18
3 33 -9 33 -12 0 -16 14 -9 31 6 18 3 26 -8 19 -11 -7 -20 10 -20 39 0 28 -9
51 -20 51 -11 0 -20 18 -20 39 0 51 -88 181 -151 222 -27 17 -42 40 -34 49 8
9 5 11 -7 4 -12 -7 -42 6 -66 29 -26 24 -60 37 -83 31 -22 -6 -44 -2 -50 7 -5
9 -23 12 -40 6 -17 -6 -29 0 -29 16 -1 21 -5 20 -20 -3 -11 -16 -20 -20 -20
-8 0 12 -25 17 -60 12 -33 -5 -60 0 -60 10 0 10 -20 19 -45 20 -110 6 -175 17
-175 31 0 9 -22 12 -48 7 -27 -5 -54 -3 -61 3 -7 7 -64 16 -127 19 -62 4 -117
16 -121 26 -3 11 -20 20 -36 20 -18 0 -24 -10 -14 -25 9 -16 2 -15 -20 3 -19
16 -59 31 -89 33 -95 8 -193 32 -219 53 -14 12 -25 14 -25 6 0 -8 -11 -6 -25
4 -14 10 -51 20 -84 22 -32 3 -66 15 -75 29 -12 19 -15 18 -16 -3 0 -19 -13
-13 -38 16 -22 25 -44 44 -50 43 -7 0 -13 6 -15 14 -2 8 -16 25 -33 37 -50 36
-41 238 12 285 24 21 44 48 44 60 0 12 14 17 30 10 17 -6 30 -1 30 11 0 12 14
22 30 22 17 0 30 8 30 18 0 16 50 35 110 43 11 1 30 11 43 22 15 12 27 10 33
-7 6 -15 12 -16 12 -4 1 13 31 20 72 17 39 -3 70 2 70 11 0 9 86 15 190 13
105 -1 190 -7 190 -13 0 -6 108 -10 240 -10 132 0 240 -7 240 -17 0 -10 14 -7
30 7 24 20 30 20 30 -3 0 -16 6 -19 15 -7 8 11 51 20 95 19 88 -1 170 26 170
58 0 11 5 14 12 8 6 -6 62 6 123 27 88 30 116 33 128 13 12 -18 16 -15 17 10
0 30 16 38 71 34 6 0 24 13 41 30 17 17 39 26 50 20 10 -6 18 -1 18 11 0 12
10 16 23 8 13 -8 18 -5 11 6 -7 11 19 50 57 87 38 37 69 79 69 94 0 15 7 23
16 18 21 -14 4 238 -20 278 -6 10 -18 69 -26 129 -8 61 -21 119 -28 130 -7 11
-16 47 -20 80 -3 33 -15 66 -26 72 -11 7 -18 18 -16 26 7 28 -26 185 -50 232
-13 28 -22 67 -19 87 3 20 1 32 -5 26 -6 -7 -37 23 -68 66 -30 43 -74 83 -97
91 -23 7 -41 22 -41 33 0 11 -16 17 -35 15 -57 -9 -165 23 -165 49 0 13 -9 10
-20 -7 -14 -21 -25 -23 -35 -8 -8 12 -78 28 -155 35 -77 7 -184 27 -238 43
-54 17 -131 30 -170 30 -40 0 -103 9 -142 20 -38 10 -112 22 -162 25 -51 3
-105 16 -120 28 -43 35 -1656 35 -1702 0z m870 -133 c983 -77 2083 -238 2104
-308 4 -12 61 -245 128 -518 l122 -496 -54 -47 c-30 -25 -182 -92 -337 -149
l-282 -102 -550 1 c-894 0 -1201 -128 -1201 -501 0 -375 309 -506 1624 -691
306 -43 262 3 470 -499 224 -542 213 -490 107 -490 -248 0 -1248 -140 -1457
-205 -516 -158 -587 -370 -614 -1830 -7 -374 -19 -645 -30 -645 -16 0 -1460
282 -1588 310 -119 26 -260 3318 -214 5016 l16 596 197 79 c259 104 498 229
743 388 232 151 161 143 816 91z"/>
<path d="M3443 6295 c-668 -990 -746 -2553 -200 -4041 131 -359 466 -1091 489
-1069 5 5 -26 81 -69 167 -43 87 -90 194 -105 238 -14 44 -37 94 -51 110 -13
17 -52 106 -87 199 -34 93 -69 179 -78 190 -9 12 -23 48 -31 81 -8 33 -26 87
-40 120 -30 70 -112 342 -120 400 -3 22 -8 40 -10 40 -2 0 -8 14 -12 30 -19
76 -26 113 -27 156 -1 26 -9 42 -18 37 -8 -6 -14 14 -13 44 2 29 -5 76 -14
103 -17 52 -35 167 -43 270 -2 33 -9 69 -15 80 -6 11 -11 63 -10 115 1 52 -5
95 -14 95 -8 0 -15 14 -15 30 0 17 10 30 22 30 17 0 17 7 1 26 -16 20 -15 34
2 53 15 16 16 22 3 14 -16 -8 -22 20 -19 92 2 58 -1 114 -7 125 -15 27 -18
370 -3 370 6 0 10 53 9 119 -2 84 5 122 25 129 15 6 27 27 27 46 -1 31 -4 32
-22 6 -18 -25 -20 -24 -10 7 7 20 12 41 12 46 0 5 8 4 18 -2 10 -6 14 24 7 69
-6 49 -2 80 10 80 12 0 17 17 11 38 -5 20 6 66 24 102 18 35 24 58 12 51 -32
-19 -27 13 9 64 17 25 29 56 27 70 -8 51 28 235 46 235 10 0 14 8 8 17 -11 18
59 218 90 255 10 12 12 28 4 35 -7 7 5 13 26 13 32 1 33 4 8 20 -22 14 -23 19
-4 20 15 0 21 8 15 18 -6 11 2 32 19 49 16 17 30 39 30 49 0 27 60 139 61 114
0 -11 17 11 38 50 20 38 34 76 30 82 -5 7 10 29 31 48 22 20 40 48 40 63 0 15
7 27 15 27 8 0 16 27 17 60 4 98 -43 71 -149 -85z"/>
<path d="M4628 5432 c-561 -91 -944 -329 -1226 -761 -313 -479 -265 -1493 127
-2661 161 -479 605 -1530 537 -1272 -13 50 23 70 61 32 59 -59 73 -15 24 82
-23 47 -25 87 -9 208 11 83 24 190 29 238 5 48 19 100 31 115 14 16 15 27 3
27 -11 0 -33 -38 -50 -85 -41 -112 -57 -176 -85 -335 -29 -167 -65 -171 -69
-9 0 34 -9 70 -20 80 -10 10 -22 42 -25 69 -4 28 -14 62 -24 76 -9 15 -11 32
-5 38 6 6 -2 24 -19 41 -17 17 -25 44 -18 62 7 17 5 25 -3 17 -18 -18 -71 103
-56 128 6 10 1 18 -11 18 -12 0 -17 9 -10 20 7 11 4 20 -6 20 -22 0 -72 101
-67 135 3 14 -4 25 -14 25 -18 0 -45 74 -52 144 -4 34 29 40 52 9 7 -10 29 -7
50 6 32 21 32 22 2 13 -31 -10 -44 8 -38 52 1 7 -16 19 -37 26 -22 7 -40 30
-40 53 0 21 -7 35 -16 30 -8 -6 -17 19 -18 54 -6 103 -12 133 -27 133 -8 0
-20 14 -27 31 -7 20 -3 26 11 17 16 -10 18 -5 6 14 -10 15 -20 46 -24 68 -10
70 -24 93 -48 78 -16 -10 -19 0 -10 34 7 26 13 55 13 64 0 9 8 11 19 5 10 -6
24 -3 30 7 7 11 -9 16 -36 11 -45 -8 -92 59 -62 88 5 6 9 -1 9 -14 0 -13 10
-23 23 -23 13 0 8 17 -12 39 -20 22 -31 53 -24 70 7 19 1 31 -17 31 -21 0 -28
18 -23 64 4 36 -4 76 -19 91 -18 17 -25 63 -21 127 4 55 -1 104 -11 110 -9 6
-11 19 -5 29 6 11 2 19 -10 19 -31 0 -25 111 8 139 29 25 20 80 -18 106 -14 9
-11 14 6 15 23 0 23 5 2 32 -36 42 -38 104 -5 131 19 16 21 29 5 48 -36 43
-42 254 -7 241 22 -8 25 -3 11 23 -10 19 -14 89 -10 155 5 66 9 142 8 168 -1
27 17 61 39 76 23 16 35 37 29 47 -6 11 -1 19 12 19 17 0 16 10 -4 34 -15 18
-18 29 -7 23 11 -6 49 33 84 86 35 54 55 93 45 86 -11 -6 -19 -3 -19 7 0 27
71 86 86 71 7 -7 19 4 27 24 21 55 131 163 182 178 25 8 45 26 45 42 0 46 75
76 86 34 9 -33 9 -33 12 0 1 19 14 35 29 35 14 0 38 22 53 49 14 27 33 45 42
40 8 -5 21 0 28 11 7 11 21 16 30 10 10 -6 27 5 38 25 12 21 21 25 21 9 1 -35
58 -23 131 28 46 32 74 38 118 26 45 -13 65 -8 84 18 18 25 57 35 146 36 67 2
133 12 147 24 37 30 58 31 77 1 10 -15 18 -17 18 -5 0 21 660 22 810 2 33 -5
94 -10 136 -11 42 -2 72 -11 66 -20 -6 -10 11 -13 39 -8 27 5 49 2 49 -8 0
-24 382 -19 426 5 38 22 -154 70 -566 140 -257 44 -1048 56 -1272 20z"/>
<path d="M3600 4052 c0 -16 -8 -32 -17 -35 -9 -4 -22 -37 -30 -73 -10 -55 -8
-62 14 -40 27 27 64 176 44 176 -6 0 -11 -13 -11 -28z"/>
<path d="M3651 3981 c-16 -25 -5 -179 11 -169 14 8 22 188 8 188 -4 0 -13 -9
-19 -19z"/>
<path d="M3880 3965 c0 -9 -22 -39 -49 -68 -76 -83 -157 -377 -103 -377 33 0
52 43 52 117 1 41 5 46 20 23 16 -25 19 -23 20 10 1 34 4 35 22 10 15 -23 19
-12 13 45 -4 41 0 75 9 75 9 0 11 23 4 50 -8 32 -4 50 11 50 13 0 18 9 11 20
-7 11 -3 20 9 20 11 0 21 9 21 20 0 11 -9 20 -20 20 -11 0 -20 -7 -20 -15z"/>
<path d="M4204 3937 c3 -15 -7 -24 -22 -21 -23 5 -24 0 -4 -23 20 -24 17 -32
-17 -43 -23 -7 -41 -22 -41 -34 0 -14 8 -14 26 1 26 21 138 50 283 72 94 14
116 30 49 34 -123 9 -172 15 -224 28 -42 11 -54 7 -50 -14z"/>
<path d="M3450 3696 c5 -77 30 -133 30 -69 0 18 11 33 25 33 18 1 18 5 -2 18
-16 10 -22 33 -15 56 9 27 3 39 -16 39 -20 0 -27 -21 -22 -77z"/>
<path d="M4510 3735 c-206 -53 -317 -192 -305 -381 7 -99 75 -244 75 -158 0
13 -7 24 -15 24 -8 0 -15 31 -15 68 0 38 6 64 13 60 8 -5 14 21 13 57 -1 109
3 142 17 129 29 -30 69 30 42 62 -20 26 -20 29 2 15 17 -10 34 -6 43 9 15 25
48 33 225 52 70 7 95 3 95 -16 1 -19 6 -17 20 4 13 20 19 22 20 5 0 -14 10
-25 21 -25 12 0 15 11 7 25 -11 20 -8 20 13 0 15 -14 41 -25 58 -25 27 1 27 3
1 20 -34 22 -34 22 60 31 97 9 203 -9 189 -32 -6 -11 35 -19 100 -19 85 0 111
7 111 30 0 22 22 30 79 30 112 0 117 32 8 47 -144 20 -788 11 -877 -12z"/>
<path d="M3488 3531 c-7 -16 -6 -37 0 -48 6 -10 -1 -29 -15 -41 -22 -18 -26
-13 -18 28 5 27 1 50 -9 50 -35 0 -41 -21 -26 -99 9 -49 6 -88 -8 -103 -16
-18 -16 -20 3 -10 15 9 34 -5 48 -36 12 -28 30 -47 38 -41 8 5 25 -19 37 -54
27 -77 27 -83 2 -67 -12 8 -19 -21 -18 -74 0 -47 6 -72 11 -56 5 17 19 50 31
73 15 31 15 62 -1 106 -12 34 -16 75 -10 92 7 18 -1 29 -19 29 -25 0 -27 12
-12 68 12 44 11 87 -2 121 -11 30 -15 63 -9 73 6 10 6 18 0 18 -7 0 -17 -13
-23 -29z"/>
<path d="M3838 3425 c-2 -19 -2 -42 0 -50 1 -8 -7 -15 -18 -15 -11 0 -20 14
-20 30 0 17 -9 30 -20 30 -11 0 -18 -11 -15 -25 3 -15 -11 -22 -34 -18 -30 5
-34 1 -17 -20 12 -15 26 -49 31 -77 l8 -50 22 50 22 50 3 -50 3 -50 21 56 c16
45 25 51 48 32 20 -16 28 -17 28 0 0 12 -9 22 -19 22 -11 0 -15 26 -8 60 8 38
4 60 -10 60 -13 0 -24 -16 -25 -35z"/>
<path d="M4020 3201 c0 -13 -9 -18 -20 -11 -11 7 -20 3 -20 -9 0 -11 11 -21
24 -21 19 0 19 -5 0 -24 -29 -29 -32 -63 -4 -46 11 7 20 -2 20 -20 0 -19 9
-27 23 -18 15 9 18 5 8 -10 -15 -25 44 -108 67 -93 6 4 12 -14 12 -41 0 -26
-9 -48 -20 -48 -11 0 -6 -9 10 -20 30 -19 -6 -30 -73 -22 -13 2 -29 -4 -34
-14 -6 -9 36 -16 93 -17 125 0 220 -22 205 -46 -6 -9 7 -12 30 -7 26 7 51 -2
68 -26 21 -29 32 -32 56 -12 16 13 33 20 38 15 5 -5 20 9 34 32 14 23 17 36 6
29 -11 -7 -28 -1 -37 14 -9 14 -59 42 -112 62 -143 54 -255 149 -318 270 -31
58 -56 96 -56 83z"/>
<path d="M4448 2997 c-17 -28 58 -92 126 -106 37 -8 60 -24 55 -37 -10 -26 8
-27 601 -35 408 -6 948 1 920 12 -11 4 -231 26 -490 48 -761 66 -922 83 -1066
110 -74 14 -140 18 -146 8z"/>
<path d="M3581 2932 c0 -22 13 -55 31 -74 25 -28 27 -43 8 -78 -28 -52 5 -104
55 -85 23 8 27 4 15 -15 -10 -16 -8 -21 5 -13 12 7 16 32 10 55 -7 28 -15 34
-25 18 -11 -19 -19 -18 -31 2 -9 15 -6 29 7 33 31 11 30 36 -1 69 -14 14 -36
49 -49 76 -19 42 -24 44 -25 12z"/>
<path d="M3929 2709 c21 -16 32 -29 23 -29 -8 0 -1 -13 15 -30 35 -35 73 -39
73 -9 0 12 -11 15 -23 7 -16 -10 -20 -4 -12 16 8 20 -5 39 -38 54 -67 30 -85
27 -38 -9z"/>
<path d="M4040 2241 c0 -12 7 -21 15 -21 48 0 65 -81 20 -99 -30 -12 -34 -19
-12 -20 43 -1 87 51 58 69 -12 7 -17 21 -11 30 6 10 -7 28 -29 40 -28 14 -41
15 -41 1z"/>
</g>
</svg>
